<svg width="170" height="100" viewBox="0 0 170 100" fill="none" xmlns="http://www.w3.org/2000/svg">
<path d="M25.4175 67.2548C25.4175 62.8073 29.6412 59.2026 34.8514 59.2026H65.3868C63.3261 55.7359 62.2199 51.7849 62.1805 47.7514C62.1412 43.718 63.1702 39.7461 65.1629 36.2399C67.1556 32.7336 70.0408 29.8181 73.5251 27.7899C77.0094 25.7618 80.9684 24.6934 84.9993 24.6934C89.0301 24.6934 92.9891 25.7618 96.4734 27.7899C99.9577 29.8181 102.843 32.7336 104.836 36.2399C106.828 39.7461 107.857 43.718 107.818 47.7514C107.779 51.7849 106.672 55.7359 104.612 59.2026H135.147C140.357 59.2026 144.582 62.8073 144.582 67.2548C144.582 71.7023 140.359 75.3071 135.147 75.3071H34.8514C29.6412 75.3056 25.4175 71.7009 25.4175 67.2548Z" fill="#004A2C"/>
<path d="M25.4175 67.2548C25.4175 62.8073 29.6412 59.2026 34.8514 59.2026H65.3868C63.3261 55.7359 62.2199 51.7849 62.1805 47.7514C62.1412 43.718 63.1702 39.7461 65.1629 36.2399C67.1556 32.7336 70.0408 29.8181 73.5251 27.7899C77.0094 25.7618 80.9684 24.6934 84.9993 24.6934C89.0301 24.6934 92.9891 25.7618 96.4734 27.7899C99.9577 29.8181 102.843 32.7336 104.836 36.2399C106.828 39.7461 107.857 43.718 107.818 47.7514C107.779 51.7849 106.672 55.7359 104.612 59.2026H135.147C140.357 59.2026 144.582 62.8073 144.582 67.2548C144.582 71.7023 140.359 75.3071 135.147 75.3071H34.8514C29.6412 75.3056 25.4175 71.7009 25.4175 67.2548Z" stroke="#C9A600"/>
<path d="M69.9091 49.9659C69.9091 49.9659 70.2644 49.4574 69.8595 48.4928C69.4547 47.5283 65.7661 42.2493 71.5057 34.2141C71.5057 34.2141 72.1936 33.1362 71.7888 32.5257C71.384 31.9153 74.1526 34.343 74.9155 38.3061C74.9155 38.3061 75.1689 39.2975 75.2948 39.7225C75.4208 40.1474 75.8525 40.204 76.0578 39.8004C77.2255 37.4633 78.2078 35.1022 79.7252 32.9492C80.6523 31.632 81.5992 30.2425 82.6566 29.0272C82.7229 28.9413 82.8 28.8641 82.8859 28.7978C83.169 28.6221 83.5724 28.7723 83.5936 29.8147V55.5295C83.5936 55.5295 83.4931 58.477 84.508 58.477C85.5228 58.477 85.5738 55.885 85.5738 55.5295C85.5738 55.174 86.1329 29.8204 86.1329 29.8204C86.1329 29.8204 86.3877 27.0258 88.6708 30.1773C90.9539 33.3288 92.886 35.969 93.547 39.9052C93.547 39.9052 93.8301 40.8967 94.2547 39.5992C94.6794 38.3018 96.4373 33.8076 96.5194 33.6305C96.6015 33.4535 97.0021 32.8671 97.966 34.2651C98.9299 35.6631 103.754 40.2876 98.9568 50.6514C98.9568 50.6514 98.4727 51.6684 98.9823 51.7166C99.39 51.7576 96.317 52.8596 93.397 52.6825C93.397 52.6825 93.1139 52.2576 95.2498 50.9305C97.3857 49.6033 98.7785 46.3824 98.9299 45.6204C99.0814 44.8583 99.69 39.6502 97.4055 37.3642C97.4055 37.3642 97.1521 37.3642 96.8974 38.2792C96.6426 39.1941 94.7657 44.4263 94.283 45.1119C94.283 45.1119 93.2667 46.0269 92.4543 43.8683C91.6418 41.7097 89.8145 36.5511 89.4337 35.9917C89.053 35.4322 88.6467 35.1801 88.6991 36.0681C88.7515 36.9562 88.6467 54.538 88.6213 55.2491C88.6213 55.2491 88.6722 58.3751 91.438 57.1541C91.438 57.1541 85.295 61.7773 78.3522 57.1541C78.3522 57.1541 80.7259 57.7901 80.7259 55.1967C80.7259 52.6032 81.285 36.3982 81.285 36.3982C81.285 36.3982 81.4365 34.3656 80.4471 35.8897C79.4577 37.4137 77.4746 41.8853 76.7145 43.7904C75.9544 45.6954 75.5213 44.9093 74.8872 43.5864C73.9998 41.7265 73.2858 39.7887 72.7541 37.7976C72.7541 37.7976 72.2474 36.629 71.6883 38.0256C71.1292 39.4222 68.236 43.4632 73.7449 50.3724C73.7449 50.3724 75.4194 51.6188 76.1512 51.9743C76.883 52.3299 72.6749 52.7364 71.4321 52.3284C70.1893 51.9205 69.6826 51.1854 69.9091 49.9659Z" fill="white"/>
<path d="M69.9091 49.9659C69.9091 49.9659 70.2644 49.4574 69.8595 48.4928C69.4547 47.5283 65.7661 42.2493 71.5057 34.2141C71.5057 34.2141 72.1936 33.1362 71.7888 32.5257C71.384 31.9153 74.1526 34.343 74.9155 38.3061C74.9155 38.3061 75.1689 39.2975 75.2948 39.7225C75.4208 40.1474 75.8525 40.204 76.0578 39.8004C77.2255 37.4633 78.2078 35.1022 79.7252 32.9492C80.6523 31.632 81.5992 30.2425 82.6566 29.0272C82.7229 28.9413 82.8 28.8641 82.8859 28.7978C83.169 28.6221 83.5724 28.7723 83.5936 29.8147V55.5295C83.5936 55.5295 83.4931 58.477 84.508 58.477C85.5228 58.477 85.5738 55.885 85.5738 55.5295C85.5738 55.174 86.1329 29.8204 86.1329 29.8204C86.1329 29.8204 86.3877 27.0258 88.6708 30.1773C90.9539 33.3288 92.886 35.969 93.547 39.9052C93.547 39.9052 93.8301 40.8967 94.2547 39.5992C94.6794 38.3018 96.4373 33.8076 96.5194 33.6305C96.6015 33.4535 97.0021 32.8671 97.966 34.2651C98.9299 35.6631 103.754 40.2876 98.9568 50.6514C98.9568 50.6514 98.4727 51.6684 98.9823 51.7166C99.39 51.7576 96.317 52.8596 93.397 52.6825C93.397 52.6825 93.1139 52.2576 95.2498 50.9305C97.3857 49.6033 98.7785 46.3824 98.9299 45.6204C99.0814 44.8583 99.69 39.6502 97.4055 37.3642C97.4055 37.3642 97.1521 37.3642 96.8974 38.2791C96.6426 39.1941 94.7657 44.4263 94.283 45.1119C94.283 45.1119 93.2667 46.0269 92.4543 43.8683C91.6418 41.7097 89.8145 36.5511 89.4337 35.9917C89.053 35.4322 88.6467 35.1801 88.6991 36.0681C88.7515 36.9562 88.6467 54.538 88.6213 55.2491C88.6213 55.2491 88.6722 58.3751 91.438 57.1541C91.438 57.1541 85.295 61.7773 78.3522 57.1541C78.3522 57.1541 80.7259 57.7901 80.7259 55.1967C80.7259 52.6032 81.285 36.3982 81.285 36.3982C81.285 36.3982 81.4365 34.3656 80.4471 35.8897C79.4577 37.4137 77.4746 41.8853 76.7145 43.7904C75.9544 45.6954 75.5213 44.9093 74.8872 43.5864C73.9998 41.7265 73.2858 39.7887 72.7541 37.7976C72.7541 37.7976 72.2474 36.629 71.6883 38.0256C71.1292 39.4222 68.236 43.4632 73.7449 50.3724C73.7449 50.3724 75.4194 51.6188 76.1512 51.9743C76.883 52.3299 72.6749 52.7364 71.4321 52.3284C70.1893 51.9205 69.6826 51.1854 69.9091 49.9659Z" stroke="#C9A600"/>
<path d="M46.9393 71.73V71.2145C45.7914 71.0955 45.7178 70.9935 45.688 69.638L45.5536 64.1268C45.5253 62.903 45.5847 62.7855 46.7624 62.6679V62.1523H43.8027L40.9166 68.6069L38.0729 62.1509H35.0255V62.6665C36.2923 62.7826 36.3956 62.9908 36.2782 64.6494L36.0432 67.5672C35.9243 69.1139 35.821 69.8958 35.7332 70.3519C35.6285 70.883 35.3638 71.1337 34.5244 71.2017V71.7173H38.0729V71.2145C37.0821 71.1252 36.8075 70.9935 36.7481 70.3448C36.6872 69.8717 36.6731 69.1819 36.7481 67.9567L36.9293 64.1112H36.9887L40.0064 71.6266H40.4042L43.6724 63.9625H43.7234L43.7517 69.6366C43.7673 70.9935 43.6923 71.0955 42.5882 71.213V71.7286L46.9393 71.73ZM54.7738 71.0955L54.6322 70.6536C54.4719 70.7355 54.2955 70.781 54.1156 70.7867C53.8636 70.7867 53.6301 70.5941 53.6301 69.917V67.3817C53.6301 66.5701 53.497 65.9525 52.8941 65.4964C52.5066 65.1996 52.0269 65.0492 51.5395 65.0715C50.6987 65.233 49.6994 65.7641 49.1814 66.1168C48.8728 66.3534 48.6959 66.529 48.6959 66.7797C48.6959 67.148 49.1686 67.4723 49.5069 67.4723C49.7716 67.4723 49.9627 67.3689 50.0533 67.0304C50.1849 66.5729 50.318 66.2344 50.4779 66.029C50.5445 65.9431 50.6306 65.8743 50.729 65.8282C50.8275 65.7822 50.9355 65.7602 51.0441 65.7641C51.664 65.7641 52.0604 66.3095 52.0604 67.2825V67.665C51.7235 67.9482 50.6025 68.3123 49.7334 68.6224C48.9535 68.9171 48.5855 69.2995 48.5855 70.0516C48.5886 70.2995 48.6407 70.5444 48.7388 70.772C48.8369 70.9997 48.979 71.2057 49.1571 71.3782C49.3351 71.5507 49.5454 71.6862 49.776 71.777C50.0066 71.8677 50.2528 71.912 50.5005 71.9071C50.8388 71.9071 51.5451 71.4057 52.1184 71.0232C52.189 71.2834 52.3451 71.5121 52.5616 71.6725C52.7781 71.8329 53.0424 71.9155 53.3116 71.9071L54.7738 71.0955ZM52.049 70.5289C51.8209 70.7323 51.5304 70.8522 51.2253 70.8689C50.8417 70.8689 50.284 70.5445 50.284 69.7485C50.284 69.2329 50.5487 68.9539 51.0497 68.7173C51.3597 68.5545 51.7716 68.3491 52.0505 68.2018L52.049 70.5289ZM60.4002 66.9483C60.3705 66.6395 60.1921 65.6522 60.0477 65.3265C59.6144 65.1439 59.1477 65.0541 58.6776 65.063C57.1899 65.063 56.2713 65.9766 56.2713 67.0814C56.2713 68.3038 57.3909 68.8505 58.1411 69.206C58.9904 69.6182 59.2735 69.9723 59.2735 70.4723C59.2753 70.5902 59.2531 70.7073 59.2084 70.8164C59.1637 70.9256 59.0973 71.0245 59.0133 71.1073C58.9293 71.19 58.8294 71.2548 58.7196 71.2979C58.6098 71.3409 58.4925 71.3612 58.3747 71.3575C57.49 71.3575 56.8177 70.3986 56.5035 69.4567L56.0901 69.4992C56.0901 70.1479 56.2317 71.1649 56.3265 71.4014C56.6096 71.6224 57.357 71.9028 58.1227 71.9028C59.3457 71.9028 60.6847 71.1946 60.6847 69.7669C60.6847 68.6763 59.9048 68.1465 58.7427 67.6423C58.0194 67.3335 57.5948 66.9936 57.5948 66.478C57.5948 65.9624 57.9614 65.5956 58.4186 65.5956C59.1263 65.5956 59.6104 66.1848 59.9642 67.0828L60.4002 66.9483ZM66.4243 71.1776L66.2898 70.7201C66.036 70.8388 65.7603 70.9039 65.4802 70.9113C65.1575 70.9113 64.6423 70.7499 64.6423 69.5856V65.903H66.0704C66.2913 65.7854 66.3224 65.4015 66.1596 65.2401H64.6409V63.1523L64.4342 63.0786L63.0188 64.1679V65.2443H62.4073L61.994 65.7471L62.0676 65.9086H63.023V70.0785C63.023 71.3533 63.643 71.9057 64.7045 71.9057C64.9144 71.8835 65.1186 71.824 65.3075 71.73L66.4243 71.1776ZM72.9028 70.0105C72.461 70.4407 71.8703 70.6838 71.2538 70.689C70.2078 70.689 69.2368 69.8788 69.1915 68.1394C70.7485 68.08 72.5659 67.9341 72.8165 67.9029C73.125 67.8448 73.2114 67.682 73.2114 67.3873C73.1976 66.7758 72.9477 66.1934 72.5141 65.7622C72.0806 65.3309 71.497 65.0844 70.8858 65.0744H70.8716C70.1059 65.0744 69.2948 65.4724 68.6621 66.1352C68.3233 66.4817 68.0564 66.8919 67.8769 67.3421C67.6973 67.7923 67.6087 68.2737 67.6161 68.7584C67.6161 70.4581 68.6919 71.9113 70.5886 71.9113C71.1547 71.9113 72.2545 71.6181 73.1519 70.3646L72.9028 70.0105ZM70.5772 65.6494C71.2241 65.6494 71.6077 66.3859 71.6077 67.1381C71.6077 67.3732 71.5185 67.4341 71.2835 67.4341C70.59 67.4624 69.9431 67.4766 69.2651 67.4766C69.3996 66.3137 69.9601 65.6494 70.5617 65.6494H70.5772ZM77.2298 66.6409V65.0531C76.4307 65.3236 75.6066 65.5134 74.7698 65.6197V66.0021C75.52 66.1437 75.6091 66.2089 75.6091 67.0488V70.2031C75.6091 71.1309 75.4747 71.2045 74.6353 71.2938V71.7357H78.4344V71.2853C77.302 71.196 77.2284 71.1224 77.2284 70.1946V67.4709C77.5115 66.808 77.8597 66.5276 78.1852 66.5276C78.4202 66.5276 78.5971 66.631 78.8477 66.8222C78.9042 66.8738 78.975 66.9071 79.0508 66.9177C79.1266 66.9284 79.2038 66.9158 79.2723 66.8817C79.46 66.8016 79.6201 66.6683 79.7328 66.4981C79.8455 66.3279 79.9059 66.1284 79.9064 65.9242C79.9064 65.4809 79.5243 65.0744 78.9652 65.0744C78.3608 65.0744 77.7564 65.7826 77.2553 66.6324L77.2298 66.6409ZM97.448 71.7399V71.2145C96.2987 71.0955 96.2265 70.9935 96.1954 69.638L96.0637 64.1268C96.034 62.903 96.0921 62.7855 97.2697 62.6679V62.1523H94.3157L91.4239 68.6054L88.5789 62.1509H85.5385V62.6665C86.8124 62.7826 86.9086 62.9908 86.7897 64.6494L86.5548 67.5672C86.4359 69.1139 86.334 69.8958 86.2434 70.3519C86.1415 70.883 85.8754 71.1337 85.0374 71.2017V71.7173H88.5859V71.2145C87.5951 71.1252 87.312 70.9935 87.2611 70.3448C87.2016 69.8717 87.1875 69.1819 87.2611 67.9567L87.438 64.1112H87.4975L90.5152 71.6266H90.9129L94.1826 63.9625H94.2421L94.2704 69.6366C94.2845 70.9935 94.2109 71.0955 93.1069 71.213V71.7286L97.448 71.7399ZM105.283 71.1054L105.141 70.6635C104.981 70.7451 104.805 70.7906 104.626 70.7966C104.377 70.7966 104.14 70.604 104.14 69.9269V67.3916C104.14 66.58 104.009 65.9624 103.406 65.5064C103.018 65.2094 102.538 65.059 102.05 65.0814C101.21 65.2429 100.21 65.7741 99.6944 66.1267C99.383 66.3633 99.2089 66.5389 99.2089 66.7896C99.2089 67.1579 99.6788 67.4822 100.017 67.4822C100.283 67.4822 100.476 67.3788 100.562 67.0403C100.696 66.5828 100.827 66.2443 100.987 66.0389C101.052 65.9539 101.137 65.8856 101.234 65.8396C101.331 65.7936 101.437 65.7711 101.544 65.7741C102.164 65.7741 102.562 66.3194 102.562 67.2924V67.6749C102.222 67.9581 101.104 68.3222 100.235 68.6324C99.4537 68.927 99.0857 69.3094 99.0857 70.0615C99.0888 70.3094 99.141 70.5543 99.2391 70.782C99.3372 71.0096 99.4793 71.2157 99.6573 71.3881C99.8353 71.5606 100.046 71.6961 100.276 71.7869C100.507 71.8776 100.753 71.9219 101.001 71.917C101.339 71.917 102.045 71.4156 102.62 71.0332C102.683 71.2611 102.811 71.4658 102.988 71.6224C103.218 71.8176 103.512 71.9219 103.813 71.9156L105.283 71.1054ZM102.558 70.5388C102.329 70.7425 102.038 70.8623 101.733 70.8788C101.35 70.8788 100.791 70.5544 100.791 69.7584C100.791 69.2428 101.056 68.9638 101.556 68.7273C101.866 68.5644 102.278 68.359 102.558 68.2117V70.5388ZM108.994 66.6338V65.0531C108.195 65.3235 107.372 65.5133 106.535 65.6197V66.0021C107.285 66.1437 107.373 66.2089 107.373 67.0488V70.2031C107.373 71.1309 107.24 71.2045 106.401 71.2938V71.7357H110.201V71.2853C109.069 71.196 108.994 71.1224 108.994 70.1946V67.4709C109.277 66.808 109.627 66.5276 109.951 66.5276C110.186 66.5276 110.363 66.631 110.615 66.8222C110.671 66.8743 110.742 66.908 110.818 66.9186C110.893 66.9293 110.971 66.9164 111.039 66.8817C111.227 66.8015 111.387 66.6681 111.499 66.4979C111.612 66.3278 111.673 66.1283 111.673 65.9242C111.673 65.4809 111.29 65.0744 110.732 65.0744C110.128 65.0744 109.523 65.7826 109.024 66.6324L108.994 66.6338ZM117.315 71.1875L117.182 70.73C116.928 70.8486 116.653 70.9137 116.373 70.9213C116.048 70.9213 115.535 70.7598 115.535 69.5955V65.903H116.961C117.182 65.7854 117.21 65.4015 117.049 65.2401H115.537V63.1523L115.331 63.0786L113.915 64.1679V65.2443H113.297L112.883 65.7471L112.957 65.9086H113.915V70.0785C113.915 71.3533 114.532 71.9057 115.594 71.9057C115.804 71.8832 116.009 71.8238 116.198 71.73L117.315 71.1875ZM120.275 62.0518C120.027 62.0538 119.791 62.1539 119.617 62.3301C119.443 62.5063 119.346 62.7442 119.347 62.9919C119.348 63.2395 119.447 63.4766 119.623 63.6514C119.798 63.8261 120.035 63.9242 120.283 63.9242C120.53 63.9242 120.768 63.8261 120.943 63.6514C121.118 63.4766 121.217 63.2395 121.218 62.9919C121.219 62.7442 121.122 62.5063 120.948 62.3301C120.775 62.1539 120.538 62.0538 120.291 62.0518H120.275ZM122.176 71.7343V71.2853C121.262 71.1819 121.185 71.0926 121.185 70.0912V65.0531C120.38 65.3151 119.552 65.4982 118.712 65.5998V66.012C119.494 66.1296 119.562 66.1876 119.562 67.131V70.0927C119.562 71.1238 119.474 71.1989 118.589 71.2867V71.7286L122.176 71.7343ZM131.041 71.7343V71.2853C130.245 71.1819 130.156 71.1436 130.156 70.1946V67.3817C130.156 65.9228 129.42 65.0687 128.242 65.0687C127.818 65.0687 127.491 65.2103 127.063 65.4936C126.725 65.7146 126.415 65.9497 126.122 66.1565V65.0389C125.326 65.3014 124.508 65.4956 123.679 65.6197V66.0021C124.432 66.1437 124.504 66.2089 124.504 67.1083V70.1522C124.504 71.1436 124.432 71.1691 123.489 71.2853V71.7272H126.906V71.2853C126.214 71.196 126.125 71.1436 126.125 70.1946V66.6749C126.538 66.352 126.95 66.1083 127.399 66.1083C128.092 66.1083 128.531 66.5517 128.531 67.597V70.087C128.531 71.1181 128.442 71.1932 127.736 71.281V71.7229L131.041 71.7343ZM134.155 62.0518C133.907 62.0538 133.67 62.154 133.496 62.3305C133.322 62.507 133.225 62.7453 133.226 62.9933C133.227 63.2413 133.326 63.4788 133.501 63.6538C133.677 63.8288 133.915 63.927 134.163 63.927C134.41 63.927 134.648 63.8288 134.824 63.6538C134.999 63.4788 135.099 63.2413 135.1 62.9933C135.101 62.7453 135.003 62.507 134.829 62.3305C134.655 62.154 134.418 62.0538 134.17 62.0518H134.155ZM136.056 71.7343V71.2853C135.143 71.1819 135.065 71.0926 135.065 70.0912V65.0531C134.26 65.3154 133.431 65.4985 132.591 65.5998V66.012C133.371 66.1296 133.44 66.1876 133.44 67.131V70.0927C133.44 71.1238 133.352 71.1989 132.468 71.2867V71.7286L136.056 71.7343Z" fill="white"/>
</svg>
