<svg width="170" height="100" viewBox="0 0 170 100" fill="none" xmlns="http://www.w3.org/2000/svg">
<g clip-path="url(#clip0_152_7366)">
<path fill-rule="evenodd" clip-rule="evenodd" d="M-1.09546 42.073H58.145C58.145 42.073 60.416 38.173 64.2442 38.303C64.8282 39.668 66.3855 47.273 65.2824 57.803C70.4084 51.043 66.4503 39.148 66.4503 39.148C66.4503 39.148 66.4503 38.368 67.0343 38.888C70.6679 45.843 70.0839 54.423 68.1374 58.128C73.7175 52.148 70.019 43.048 69.8893 42.593C69.7595 42.138 69.8893 42.008 69.8893 42.008H168.905V58.908H70.4083C70.4083 58.908 68.0725 62.808 64.3091 62.678C62.1679 56.698 62.8816 45.453 63.3358 43.178C58.2099 49.938 62.1679 61.833 62.1679 61.833C62.1679 61.833 62.2328 62.548 61.5839 62.093C57.9503 55.138 58.5343 46.558 60.4809 42.853C54.9007 48.833 58.5992 57.933 58.729 58.388C58.8587 58.843 58.729 58.973 58.729 58.973H-1.09546V42.073Z" fill="#4B2F21"/>
<path fill-rule="evenodd" clip-rule="evenodd" d="M167.931 43.1129H70.7977C70.7977 43.1129 74.6908 50.2629 70.7977 57.9328H167.931V43.1129ZM0.00756836 57.8678H57.7557C57.7557 57.8678 53.8625 50.7179 57.7557 43.0479H0.00756836V57.8678Z" fill="#E1251B"/>
<path fill-rule="evenodd" clip-rule="evenodd" d="M44.5191 45.6482H48.4122V46.4932H47.7634C47.7634 46.4932 47.4389 46.4282 47.6336 46.7532C47.8282 47.0782 49.3855 49.8082 49.3855 50.0032C49.4504 50.1982 49.645 50.0032 49.7748 49.8082C49.8397 49.6132 51.2023 47.3382 51.3969 46.9482C51.7214 46.4282 51.0725 46.4932 51.0725 46.4932H50.6183V45.6482H53.7328V46.4932H53.2786C53.2786 46.4932 52.9542 46.4282 52.6947 46.8832C52.4351 47.3382 50.2939 51.0432 50.2939 51.0432C50.2939 51.0432 50.1641 51.2382 50.1641 51.5632V54.1632C50.1641 54.4232 50.4237 54.3582 50.4237 54.3582H51.3321V55.2682H47.1145V54.3582H48.0878C48.0878 54.3582 48.3473 54.2932 48.3473 53.9682V51.8232C48.3473 51.4982 48.0229 50.9132 48.0229 50.9132C48.0229 50.9132 46.0763 47.5332 45.8168 47.0132C45.4275 46.3632 45.1031 46.4282 45.1031 46.4282H44.6489L44.5191 45.6482ZM11.5573 51.6932C11.1679 50.5232 10.1947 50.1982 9.41603 50.0682C10.3244 49.8732 11.2328 49.0282 11.1031 47.5332C10.9733 46.0382 9.22138 45.6482 8.18321 45.6482H3.771V46.4932H4.35497C4.35497 46.4932 4.80916 46.4282 4.80916 46.8832V54.1632C4.80916 54.4232 4.41985 54.4882 4.41985 54.4882H3.771V55.3332H8.18321C11.7519 55.2032 11.9466 52.8632 11.5573 51.6932ZM6.69084 46.6882C6.69084 46.4282 6.82061 46.4282 7.01527 46.4282C7.20993 46.4282 8.50764 46.3632 9.09161 47.3382C9.5458 48.5732 8.89695 49.4182 8.18321 49.6132C7.3397 49.8732 7.01527 49.8732 7.01527 49.8732C7.01527 49.8732 6.69084 49.9382 6.69084 49.6132V46.6882ZM9.22138 53.9032C8.70229 54.3582 7.01527 54.3582 7.01527 54.3582C7.01527 54.3582 6.69084 54.3582 6.69084 54.0982V51.0432C6.69084 50.8482 6.75573 50.7832 6.95038 50.7832C7.14504 50.7832 8.76718 50.6532 9.28626 51.3682C9.80535 52.0182 10 53.1232 9.22138 53.9032ZM22.0687 54.3582C21.874 54.3582 21.6794 54.3582 21.6145 54.1632C21.5496 53.9032 18.4351 45.6482 18.4351 45.6482H16.8779C16.8779 45.6482 13.958 53.7732 13.8282 54.1632C13.6985 54.4882 13.4389 54.4232 13.4389 54.4232H12.9199V55.3332H15.8397V54.4232H15.2557C14.9962 54.4232 14.9313 54.2282 15.0611 53.9682C15.126 53.7082 15.7099 51.9532 15.7099 51.9532H18.8893C18.8893 51.9532 19.6031 53.9682 19.7328 54.1632C19.7977 54.4232 19.6679 54.3582 19.6679 54.3582H18.7595V55.2682H22.5878V54.3582H22.0687ZM18.1756 50.9782H16.3588C16.1641 50.9782 16.0344 50.9782 16.1641 50.6532C16.2939 50.3282 17.0725 48.1832 17.1374 47.9882C17.2023 47.7932 17.2672 47.7932 17.3969 47.9882C17.4618 48.1832 18.3053 50.3282 18.3702 50.5232C18.4351 50.7832 18.5649 50.9782 18.1756 50.9782ZM32.7748 54.3582C32.3206 54.2282 31.9313 54.3582 31.542 52.9932C31.1527 51.6282 30.6336 51.1082 30.3092 50.8482C29.9847 50.5882 29.5954 50.6532 29.5954 50.4582C31.6718 50.0032 31.9313 48.7682 31.8015 47.6632C31.6069 46.1032 30.2443 45.5832 28.3626 45.5832H24.145V46.4282H24.8588C24.8588 46.4282 25.2481 46.4282 25.2481 46.9482V53.9032C25.2481 54.4232 24.9237 54.3582 24.9237 54.3582H24.2748V55.2682H28.1031V54.3582H27.5191C27 54.3582 27.0649 54.0332 27.0649 53.7732V51.3032C27.0649 51.0432 27.2595 51.1082 27.2595 51.1082H27.7137C29.0115 51.1082 29.4657 52.9282 29.855 53.9682C30.2443 55.0082 31.3473 55.3982 32.0611 55.3982C32.7748 55.3982 33.3588 55.2682 33.3588 55.2682V54.4232C33.4237 54.4232 33.229 54.4882 32.7748 54.3582ZM27.3893 50.1332C27.3893 50.1332 27 50.2632 27 49.8732V46.8182C27 46.4932 27.0649 46.3632 27.3893 46.3632C27.584 46.3632 28.9466 46.2332 29.4008 47.0132C29.7901 47.7282 29.9198 48.9632 29.1412 49.6132C28.6221 50.1982 27.3893 50.1332 27.3893 50.1332ZM43.6756 54.3582C43.2214 54.2282 42.8321 54.3582 42.4427 52.9932C42.0534 51.6282 41.5344 51.1082 41.2099 50.8482C40.8855 50.5882 40.5611 50.6532 40.4962 50.4582C42.5076 50.0032 42.8321 48.7682 42.6374 47.6632C42.4427 46.1032 41.0802 45.5832 39.1985 45.5832H34.9809V46.4282H35.6947C35.6947 46.4282 36.084 46.4282 36.084 46.9482V53.9032C36.084 54.4232 35.7595 54.3582 35.7595 54.3582H35.1107V55.2682H39.0687V54.3582H38.4847C37.9656 54.3582 38.0305 54.0332 38.0305 53.7732V51.3032C38.0305 51.0432 38.2252 51.1082 38.2252 51.1082H38.6794C39.9771 51.1082 40.4313 52.9282 40.8206 53.9682C41.2099 55.0082 42.313 55.3982 43.0267 55.3982C43.7405 55.3982 44.3244 55.2682 44.3244 55.2682V54.4232C44.3893 54.4232 44.1947 54.4882 43.6756 54.3582ZM38.355 50.1982C38.355 50.1982 37.9656 50.3282 37.9656 49.9382V46.8832C37.9656 46.5582 38.0305 46.4282 38.2901 46.4282C38.4847 46.4282 39.8473 46.2982 40.3015 47.0782C40.6908 47.7932 40.8206 49.0282 40.042 49.6782C39.5229 50.1982 38.355 50.1982 38.355 50.1982ZM157.744 55.2682H161.962V54.3582H161.118C161.118 54.3582 160.794 54.2932 160.794 53.7732V46.7532C160.794 46.5582 160.989 46.4282 161.118 46.4282H162.351C162.611 46.4282 162.74 46.5582 162.87 47.0782C162.935 47.5982 163.065 48.1182 163.065 48.1182H164.038V45.5832H155.798V48.1182H156.771C156.771 48.1182 156.836 47.6632 156.966 47.0782C157.031 46.5582 157.225 46.4282 157.485 46.4282H158.718C158.847 46.4282 159.042 46.4932 159.042 46.7532V53.7732C159.042 54.2932 158.718 54.3582 158.718 54.3582H157.874V55.2682H157.744ZM144.443 45.6482H148.466V46.4932H147.817C147.817 46.4932 147.492 46.4932 147.492 46.8832V51.8232C147.492 52.7982 147.817 54.1632 149.439 54.1632C151.126 54.1632 151.969 53.6432 151.969 51.4982V47.1432C151.969 46.4282 150.866 46.5582 150.866 46.5582V45.7132H154.046V46.5582H153.332C153.332 46.5582 152.943 46.4932 152.943 47.0782V51.7582C152.943 53.2532 152.813 54.9432 150.218 55.3982C147.752 55.8532 145.481 54.9432 145.481 51.7582V47.1432C145.481 46.7532 145.351 46.6232 145.092 46.6232H144.443V45.6482ZM117.321 54.3582H120.5C120.5 54.3582 120.824 54.3582 120.889 53.8382C120.954 53.3182 121.019 52.5382 121.019 52.5382H122.057C122.057 52.5382 122.187 54.0982 122.057 55.2682H114.401V54.3582H115.115C115.115 54.3582 115.504 54.4232 115.504 53.8382V47.0132C115.504 46.4282 115.115 46.4932 115.115 46.4932H114.401V45.6482H121.538C121.538 45.6482 121.603 45.7782 121.603 46.6232V47.9232H120.565C120.5 47.2732 120.24 46.4932 120.24 46.4932H117.645C117.645 46.4932 117.321 46.4932 117.321 46.9482V49.8082H118.878C119.137 49.8082 119.332 49.7432 119.397 49.3532L119.527 48.5732H120.435C120.435 48.5732 120.5 48.9632 120.5 50.2632C120.5 51.5632 120.435 52.0182 120.435 52.0182H119.527C119.527 51.3032 119.267 50.7832 119.267 50.7832H117.321V54.3582ZM96.4275 46.4282V45.5832H100.515V46.4282H99.7366C99.7366 46.4282 99.4771 46.4282 99.4771 46.8832V54.3582H102.137C102.137 54.3582 102.462 54.3582 102.527 53.8382C102.592 53.3182 102.721 52.4082 102.721 52.4082H103.76C103.76 52.4082 103.889 54.1632 103.76 55.2682H96.6221V54.3582H97.3359C97.3359 54.3582 97.7252 54.4232 97.7252 53.8382V47.0132C97.7252 46.4282 97.3359 46.4932 97.3359 46.4932H96.4275V46.4282ZM83.8397 48.5082C83.8397 48.5082 84.0343 47.2732 83.7748 45.9732C83.4504 45.8432 81.6336 45.1932 79.7519 45.5182C77.8702 45.8432 75.9885 47.2732 75.7939 50.1332C75.5992 52.9932 77.416 54.6182 79.5573 55.2682C81.374 55.7882 83.7099 54.8132 83.7099 54.8132C83.7099 54.8132 83.9046 53.7082 83.7748 52.4082H82.6718L82.3473 54.0332C82.2824 54.2932 82.2824 54.3582 81.8282 54.4232C81.374 54.4882 78.4542 54.8782 77.8053 51.1732C77.4809 49.3532 78.2595 46.9482 80.4008 46.5582C82.4122 46.2332 82.4122 47.2732 82.4771 47.5982C82.542 47.9232 82.6069 48.5082 82.6069 48.5082H83.8397ZM105.447 46.3632V45.5182H109.534V46.3632H108.756C108.756 46.3632 108.496 46.3632 108.496 46.8182V54.2932H111.092C111.092 54.2932 111.416 54.2932 111.481 53.7732C111.546 53.2532 111.676 52.3432 111.676 52.3432H112.714C112.714 52.3432 112.844 54.0982 112.714 55.2032H105.576V54.2932H106.29C106.29 54.2932 106.679 54.3582 106.679 53.7732V46.8832C106.679 46.2982 106.29 46.3632 106.29 46.3632H105.447ZM94.416 54.3582C94.2214 54.3582 94.0267 54.3582 93.9618 54.1632C93.8969 53.9032 90.7824 45.6482 90.7824 45.6482H89.2252C89.2252 45.6482 86.3053 53.7732 86.1756 54.1632C86.0458 54.4882 85.7863 54.4232 85.7863 54.4232H85.2672V55.3332H88.187V54.4232H87.6031C87.3435 54.4232 87.2786 54.2282 87.4084 53.9682C87.4733 53.7082 88.0572 51.9532 88.0572 51.9532H91.2366C91.2366 51.9532 91.9504 53.9682 92.0153 54.1632C92.0801 54.4232 91.9504 54.3582 91.9504 54.3582H91.042V55.2682H94.8702V54.3582H94.416ZM90.5878 50.9782H88.771C88.5763 50.9782 88.4466 50.9782 88.5763 50.6532C88.7061 50.3282 89.4847 48.1832 89.5496 47.9882C89.6145 47.7932 89.6794 47.7932 89.8092 47.9882C89.874 48.1832 90.7176 50.3282 90.7824 50.5882C90.7824 50.7832 90.9771 50.9782 90.5878 50.9782ZM142.95 54.3582C142.756 54.3582 142.561 54.3582 142.496 54.1632C142.431 53.9032 139.317 45.6482 139.317 45.6482H137.76C137.76 45.6482 134.84 53.7732 134.71 54.1632C134.58 54.4882 134.321 54.4232 134.321 54.4232H133.802V55.3332H136.721V54.4232H136.137C135.878 54.4232 135.813 54.2282 135.943 53.9682C136.008 53.7082 136.592 51.9532 136.592 51.9532H139.771C139.771 51.9532 140.485 53.9682 140.55 54.1632C140.615 54.4232 140.485 54.3582 140.485 54.3582H139.576V55.2682H143.405V54.3582H142.95ZM139.057 50.9782H137.24C137.046 50.9782 136.916 50.9782 137.046 50.6532C137.176 50.3282 137.954 48.1832 138.019 47.9882C138.084 47.7932 138.149 47.7932 138.279 47.9882C138.344 48.1832 139.187 50.3282 139.252 50.5882C139.317 50.7832 139.447 50.9782 139.057 50.9782ZM132.374 51.6282C131.985 50.4582 131.011 50.1332 130.233 50.0032C131.141 49.8082 132.05 48.9632 131.855 47.4682C131.725 45.9732 129.973 45.5832 128.935 45.5832H124.458V46.4282H125.042C125.042 46.4282 125.496 46.3632 125.496 46.8182V54.0982C125.496 54.3582 125.107 54.4232 125.107 54.4232H124.458V55.2682H128.87C132.569 55.1382 132.763 52.7982 132.374 51.6282ZM127.508 46.6882C127.508 46.4282 127.637 46.4282 127.832 46.4282C128.027 46.4282 129.324 46.3632 129.908 47.3382C130.363 48.5732 129.714 49.4182 129 49.6132C128.156 49.8082 127.832 49.8732 127.832 49.8732C127.832 49.8732 127.573 49.9382 127.573 49.6132V46.6882H127.508ZM129.973 53.8382C129.454 54.2932 127.767 54.2932 127.767 54.2932C127.767 54.2932 127.508 54.3582 127.508 54.0332V50.9782C127.508 50.7832 127.573 50.7182 127.767 50.7182C127.962 50.7182 129.584 50.5882 130.103 51.3032C130.622 52.0182 130.817 53.0582 129.973 53.8382Z" fill="white"/>
</g>
<defs>
<clipPath id="clip0_152_7366">
<rect width="167" height="26" fill="white" transform="translate(1.5 37)"/>
</clipPath>
</defs>
</svg>
