<svg width="170" height="100" viewBox="0 0 170 100" fill="none" xmlns="http://www.w3.org/2000/svg">
<path fill-rule="evenodd" clip-rule="evenodd" d="M27.3608 58.6883C27.4008 30.1255 53.2408 7.01667 85.0608 7.07727C116.891 7.12777 142.661 30.3275 142.601 58.8903L142.561 61.7587L142.611 70.3942L142.661 75.7472C142.661 78.4136 141.841 80.8578 140.261 82.8374C138.901 84.5342 135.721 87.3824 129.661 87.3824H129.091C127.611 87.3824 126.391 87.3622 124.971 87.342H124.711C122.761 87.3117 120.311 87.2713 116.221 87.2612H113.341C106.385 87.2513 99.4432 87.9108 92.6108 89.2307L92.5308 89.2408C91.6308 89.4427 89.2208 90.0185 87.8108 90.4831L85.3108 91.2911L82.7908 90.6042C80.4508 89.9578 78.0908 89.3519 77.6708 89.271C75.5208 88.8166 67.7408 87.3622 57.1908 87.3521H56.8308C50.8908 87.3622 47.8508 87.4228 45.4208 87.4632H45.1708C43.6008 87.4934 42.2608 87.5238 40.5308 87.5238H40.4908C32.8408 87.5238 27.5008 82.7768 27.4708 76.0098L27.3708 61.991L27.3608 58.6883Z" fill="#001689"/>
<path fill-rule="evenodd" clip-rule="evenodd" d="M27.3508 64.0411C27.4208 34.9733 53.3008 14.1471 85.1008 14.2077C116.891 14.2683 142.711 35.1753 142.661 64.2835V64.7481L27.3608 64.9804V64.0612L27.3508 64.0411Z" fill="#FEFEFE"/>
<path fill-rule="evenodd" clip-rule="evenodd" d="M84.9808 15.4906C63.7408 15.4906 45.2008 24.924 35.5808 39.9528C40.5008 52.2243 61.2408 61.4658 86.0808 61.5062C109.581 61.5466 129.421 53.3555 135.721 42.1142C126.521 25.8633 107.301 15.531 85.0908 15.4805H84.9908" fill="url(#paint0_radial_152_7363)"/>
<path fill-rule="evenodd" clip-rule="evenodd" d="M110.791 36.7309C108.291 35.0139 102.621 30.8123 99.6807 29.9841C95.2907 28.7317 90.3807 32.5798 87.7007 33.1151C85.0307 33.6201 83.0807 30.4083 80.6007 30.3578C78.6007 30.3174 68.9207 34.2362 66.2007 35.2664L72.1507 37.8318C72.9707 38.3671 95.0907 43.2353 112.111 38.3368L110.791 36.7208V36.7309Z" fill="#FEFEFE"/>
<path fill-rule="evenodd" clip-rule="evenodd" d="M66.2007 35.2663C68.9207 34.2361 78.6007 30.3173 80.6007 30.3577C81.6807 30.3678 82.6607 30.994 83.6407 31.6606C82.2407 31.2869 79.7807 29.7416 78.6807 32.3474C78.1207 33.6806 77.1807 36.5591 76.0207 36.9732C73.1207 38.4882 66.2007 35.2663 66.2007 35.2663Z" fill="#3EBFEF"/>
<path fill-rule="evenodd" clip-rule="evenodd" d="M91.7609 33.4384C94.0509 32.1759 94.7209 31.1356 95.0809 30.166C92.1109 30.9841 88.8609 33.0849 87.2709 33.1556C86.7209 33.1758 86.3909 33.0748 85.9809 32.9637C85.8609 33.5697 85.2809 34.7615 84.9309 35.4685C84.2509 36.8825 82.7309 37.4885 81.6709 38.3268L81.6509 38.3571C83.5009 39.0641 85.0609 40.9831 86.9609 40.6498L87.8309 40.2458C88.1809 39.0136 89.1009 34.8928 91.7609 33.4283" fill="#EBF6FC"/>
<path fill-rule="evenodd" clip-rule="evenodd" d="M95.6908 30.0042C93.5108 30.5698 90.5908 31.9535 88.9108 32.711C88.2308 33.0241 89.0808 35.3774 89.1608 36.4177C89.7713 35.2447 90.734 34.2971 91.9108 33.7109C93.9208 32.61 94.9808 31.9232 95.2808 31.0647L95.6208 30.1658L95.6908 29.9941V30.0042Z" fill="#93D5F5"/>
<mask id="mask0_152_7363" style="mask-type:alpha" maskUnits="userSpaceOnUse" x="28" y="15" width="114" height="49">
<path d="M28.5608 63.6879L141.461 63.4455C141.021 35.4281 115.921 15.5513 85.0908 15.4907H84.9908C54.0308 15.4907 28.8208 35.519 28.5508 63.6879H28.5608Z" fill="white"/>
</mask>
<g mask="url(#mask0_152_7363)">
<path fill-rule="evenodd" clip-rule="evenodd" d="M24.2609 34.1553C24.2609 34.1553 29.6109 33.8624 54.4009 29.6507C65.7609 27.7216 81.8409 40.9425 91.5609 39.7507C101.271 38.5387 115.011 34.0139 125.061 33.7311C133.491 33.4887 141.811 37.3974 141.811 37.3974L141.771 58.668L24.2109 58.4559L24.2609 34.1553Z" fill="#006F3F"/>
<path fill-rule="evenodd" clip-rule="evenodd" d="M24.1909 43.3162C24.1909 43.3162 56.5709 42.6799 67.8809 40.3367C77.6109 38.3268 86.1309 42.7809 91.0409 42.7304C95.9509 42.69 98.5409 39.8519 108.611 40.0034C120.481 40.1751 141.831 43.9525 141.831 43.9525L141.761 58.7894L24.2209 58.5874L24.1909 43.3162Z" fill="#FFEC00"/>
<path fill-rule="evenodd" clip-rule="evenodd" d="M24.1709 51.1129C24.1709 51.1129 55.8909 43.9419 67.7009 42.2754C77.5609 40.8816 86.7009 44.6489 91.6209 44.5984C96.5209 44.558 98.6209 42.3562 108.701 42.5077C120.571 42.6794 141.831 49.5272 141.831 49.5272L144.431 65.3034L24.1909 65.4852L24.1709 51.123V51.1129Z" fill="#81B82E"/>
</g>
<path fill-rule="evenodd" clip-rule="evenodd" d="M82.5908 92.1954C80.0408 91.5187 77.4908 90.8723 77.0308 90.7814C69.7092 89.409 62.2773 88.726 54.8308 88.7412H54.4408C48.0108 88.7412 44.7208 88.822 42.0808 88.8725H41.8008C40.1108 88.9028 38.6508 88.9331 36.7708 88.9331H36.7408C28.4408 88.923 22.6508 83.8932 22.6208 76.7222L22.5208 61.8449C22.4931 60.1163 22.8508 58.4035 23.5674 56.8335C24.2841 55.2635 25.3413 53.8764 26.6608 52.7751C28.4408 51.2702 31.6008 49.5027 36.6008 49.5027H37.4208C38.9208 49.5027 40.2008 49.5229 41.6508 49.5431H41.9408C43.7808 49.5734 46.5608 49.6239 51.2408 49.634H54.2908C61.8428 49.6507 69.3796 48.9473 76.8008 47.5332C78.5343 47.1658 80.2523 46.7278 81.9508 46.2202L84.8808 45.291L87.8108 46.2C89.3508 46.6848 91.9808 47.311 92.9808 47.513C95.3208 47.9776 103.861 49.5229 115.141 49.533H115.541C121.961 49.533 125.241 49.4724 127.871 49.4118H127.931C129.691 49.3815 131.221 49.3613 133.211 49.3512H133.291C141.541 49.3613 147.331 54.4012 147.381 61.6025L147.431 70.7632L147.481 76.4293C147.481 79.2674 146.581 81.8631 144.881 83.9538C143.401 85.7516 139.951 88.7715 133.401 88.7816H132.781C131.161 88.7816 129.851 88.7614 128.311 88.7412H128.041C125.901 88.7008 123.261 88.6604 118.821 88.6503H115.701C104.301 88.6705 95.6708 90.2461 93.2408 90.7309L93.1508 90.7612C92.1708 90.9531 89.5508 91.5894 88.0308 92.0641L85.3208 92.9226L82.5908 92.1954Z" fill="#E52329"/>
<path fill-rule="evenodd" clip-rule="evenodd" d="M83.9708 86.8016C83.9308 86.7915 79.1208 85.5189 78.1208 85.3169C75.6708 84.822 66.7808 83.1959 54.8508 83.1757H54.4508C47.9408 83.1858 44.6408 83.2464 41.9808 83.2969H41.6808C40.0108 83.3373 38.5808 83.3575 36.7808 83.3575H36.7308C34.0408 83.3575 31.7208 82.6202 30.1708 81.2769C29.5136 80.7153 28.99 80.0115 28.6386 79.2178C28.2872 78.4241 28.117 77.5607 28.1408 76.6915L28.0408 61.8041C28.0408 59.8851 28.7708 58.2388 30.1908 57.047C31.2608 56.138 33.2608 55.0573 36.6108 55.0674H37.4108C38.9008 55.0674 40.2008 55.0876 41.5808 55.1078H41.8608C46.0035 55.1949 50.1472 55.2252 54.2908 55.1987C62.2085 55.2164 70.1102 54.4792 77.8908 52.9969C79.0108 52.7646 81.8108 52.1081 83.6108 51.5324L84.8908 51.1284L86.1808 51.5324C88.0008 52.0879 90.8408 52.7444 91.9008 52.9666C94.3708 53.4716 103.341 55.0876 115.121 55.0977L115.551 55.1078C122.011 55.1078 125.321 55.0371 127.981 54.9866H128.041C129.781 54.9462 131.291 54.9159 133.221 54.9159H133.281C135.951 54.9159 138.281 55.6633 139.811 56.9965C140.473 57.5679 141.001 58.2815 141.356 59.0853C141.711 59.8891 141.883 60.7628 141.861 61.6425L141.911 70.7931L141.971 76.4794C141.971 77.9944 141.511 79.3276 140.641 80.4083C139.781 81.4587 137.701 83.206 133.381 83.2262H132.781L128.581 83.1757L128.131 83.1656C125.981 83.1353 123.311 83.0949 118.841 83.0848H115.701C107.8 83.0703 99.9157 83.8041 92.1508 85.2765L92.0208 85.3068C90.1179 85.7108 88.2329 86.196 86.3708 86.7612L85.1908 87.1248L83.9708 86.8016Z" fill="#FEFEFE"/>
<path fill-rule="evenodd" clip-rule="evenodd" d="M132.721 59.512H137.491L137.461 77.5708H132.811V76.4699C132.071 77.3486 130.901 77.9243 129.221 77.9344C125.641 77.9344 124.101 74.1368 124.041 70.4301V70.1877C124.021 67.2385 125.461 63.451 129.361 63.4308C130.821 63.4308 132.311 63.8045 132.681 64.562H132.721V59.512ZM102.521 63.3803H102.861L103.201 63.4005C105.411 63.5419 107.691 64.4206 107.801 67.5112V67.7536L107.791 77.5203L103.561 77.5102L103.551 76.4396L103.401 76.5911L103.251 76.7426C102.532 77.4637 101.564 77.8762 100.551 77.894C97.7509 77.9041 96.0709 76.7628 96.0509 73.854C96.0509 71.3997 97.7009 70.3493 99.4409 69.713L99.8409 69.5716L100.241 69.4403L101.571 69.0565L101.911 68.9555C102.791 68.6727 103.411 68.3596 103.391 67.794C103.361 66.885 102.611 66.7436 101.871 66.7436H101.751C100.451 66.7436 99.4809 67.1173 98.3209 67.7031L97.0809 68.3596L97.3809 64.9054C98.8509 63.6126 100.591 63.3904 102.521 63.3904V63.3803ZM68.5609 63.35H68.8109L69.3209 63.3702C70.4709 63.4207 71.7209 63.5924 72.4009 64.0267L72.5409 64.1277V68.4505C71.8709 67.8647 69.9309 67.7435 69.3909 67.8142C67.9509 68.0465 66.7909 68.8646 66.7909 70.9149C66.7909 72.6016 67.5409 73.955 69.2909 73.9651C70.6109 73.9651 71.9509 73.6621 72.4409 73.3995L72.5309 73.349L72.5109 77.3587C72.0909 77.5506 71.1409 77.6617 70.2109 77.7324L69.6009 77.7829L69.3009 77.793L68.7709 77.8132L68.1709 77.8334C63.5709 77.8334 62.0909 74.4297 62.0709 70.622C62.0509 66.3194 64.1709 63.3399 68.5709 63.35H68.5609ZM54.2609 63.3298C54.4609 63.3298 54.6609 63.3298 54.8809 63.35L55.2009 63.3904L55.5209 63.4409L55.8509 63.5015L56.1809 63.5924C58.5109 64.2287 60.9609 66.1578 60.9609 70.4705C60.9609 76.0255 56.9309 77.8031 54.2909 77.8031L53.8309 77.793L53.5209 77.7627C50.9209 77.4597 47.5509 75.5205 47.5509 70.5008C47.5609 65.4609 50.9109 63.6732 53.5009 63.3702L53.8209 63.3399L54.2709 63.3298H54.2609ZM118.491 63.3702C120.711 63.3702 122.811 64.7741 122.831 67.9758L122.811 77.5405H118.021L118.051 69.9958C118.051 68.2687 117.611 67.6425 116.311 67.6425C115.201 67.6425 114.471 68.2485 114.481 69.9453L114.471 77.5203H109.681L109.711 63.8146H114.491V65.067L114.591 64.9357C115.471 63.6833 116.641 63.3702 118.471 63.3702H118.491ZM89.7309 59.4312L94.2909 59.4413L94.2609 77.49H89.5009L89.5209 59.4413H89.7209L89.7309 59.4312ZM74.4709 59.411L79.1709 59.4211V65.168L79.2809 65.0064C80.1509 63.754 81.3109 63.4308 83.1309 63.4308C85.3609 63.4308 87.4209 64.8347 87.4409 68.0263L87.4209 77.4799H82.7209V70.0564C82.7209 68.3293 82.2809 67.7132 80.9709 67.7132C79.8709 67.7132 79.1909 68.3495 79.2009 70.0362L79.1809 77.4698H74.4409L74.4709 59.411ZM32.9709 59.3403H37.7509L37.7409 65.572H41.2809L41.2909 59.3504L46.0809 59.3605L46.0409 77.4092L41.2709 77.3991V70.3998H37.7409L37.7309 77.389H32.9309L32.9709 59.3403ZM103.961 71.0664C103.961 71.1977 103.801 71.2987 103.541 71.3795L103.291 71.4603L102.491 71.6724L101.951 71.8441L101.571 71.9754C101.031 72.1976 100.311 72.5814 100.301 73.4904C100.311 74.2984 101.141 74.662 101.651 74.662C102.121 74.662 102.521 74.5509 102.851 74.3489L102.991 74.2479C103.501 73.9449 103.801 73.3894 103.911 72.5814L103.931 72.3794C103.971 71.9754 103.991 71.5512 103.961 71.0664ZM130.441 67.3294C129.541 67.3294 128.001 67.9556 128.001 70.6321C128.021 73.2783 129.561 73.9045 130.461 73.9045C131.361 73.9045 132.761 73.2783 132.761 70.6018C132.731 67.9354 131.341 67.3294 130.441 67.3294ZM54.2409 67.3294C53.2209 67.3294 51.6609 67.9152 51.6709 70.4604C51.6709 73.0056 53.2509 73.5914 54.2709 73.5914C55.2909 73.5914 56.8709 72.9955 56.8509 70.4604C56.8309 67.9152 55.2709 67.3294 54.2509 67.3294H54.2409Z" fill="#001689"/>
<defs>
<radialGradient id="paint0_radial_152_7363" cx="0" cy="0" r="1" gradientUnits="userSpaceOnUse" gradientTransform="translate(47.7919 -55.7649) rotate(-90) scale(48.6794 20.3252)">
<stop stop-color="#F3FBFF"/>
<stop offset="0.5346" stop-color="#DDF1FB"/>
<stop offset="0.6683" stop-color="#C6E8F9"/>
<stop offset="1" stop-color="#80CFF3"/>
</radialGradient>
</defs>
</svg>
