<svg width="170" height="100" viewBox="0 0 170 100" fill="none" xmlns="http://www.w3.org/2000/svg">
<path d="M131.466 31.2496C130.647 34.5911 132.801 35.3252 132.801 35.3252C132.551 31.5199 135.849 31.0838 138.637 31.7779C141.426 32.472 142.904 30.5217 142.904 30.5217C140.426 29.9075 139.314 28.1323 137.36 27.6471C135.407 27.1618 132.286 27.9081 131.466 31.2496ZM129.248 40.8902C129.885 42.8097 132.18 45.0579 135.416 43.9615C138.652 42.865 138.119 40.6445 138.119 40.6445C135.072 42.8957 132.938 40.322 132.024 37.5733C131.11 34.8245 128.69 34.628 128.69 34.628C129.501 37.0758 128.611 38.9676 129.248 40.8902Z" fill="#C3004B"/>
<path d="M139.134 38.7285C139.169 38.6256 139.183 38.5165 139.175 38.408C139.167 38.2994 139.136 38.1937 139.086 38.0974C139.036 38.001 138.967 37.916 138.883 37.8476C138.799 37.7792 138.702 37.7289 138.598 37.6996C138.302 37.6074 138.039 37.4296 137.842 37.1883C137.646 36.947 137.524 36.6527 137.491 36.3421C137.296 35.172 138.351 34.9539 138.543 34.3059C138.808 33.4275 137.875 33.2801 137.875 33.2801C134.703 32.5307 133.152 38.5933 136.867 39.5209C138.201 39.8556 138.988 39.3888 139.134 38.7285ZM144.546 41.6369C145.979 40.215 146.984 37.1499 144.577 34.699C142.169 32.2482 140.432 33.7101 140.432 33.7101C143.784 35.4883 142.428 38.5473 140.38 40.5804C138.332 42.6136 139.219 44.8802 139.219 44.8802C141.039 43.0866 143.114 43.0589 144.546 41.6369ZM128.008 31.3115L128.069 31.8827L128.3 31.3575C130.433 26.5173 134.349 24.6008 137.248 23.8146C140.789 22.8932 144.421 23.1819 146.043 23.9497L146.521 24.1739L146.238 23.7255C145.411 22.4422 144.294 21.3755 142.977 20.6135C141.661 19.8514 140.184 19.4159 138.668 19.3429C137.152 19.2868 135.642 19.5717 134.249 20.1767C132.856 20.7818 131.614 21.6919 130.613 22.841C129.628 23.9987 128.888 25.3476 128.44 26.8044C127.992 28.2612 127.845 29.7951 128.008 31.3115Z" fill="#C3004B"/>
<path d="M129.211 43.9185L129.769 44.0352L129.345 43.6513C125.442 40.101 124.826 35.7613 124.994 32.7453C125.201 29.0599 126.615 25.6815 127.837 24.3578L128.199 23.9678L127.687 24.0998C126.221 24.4963 124.869 25.2383 123.744 26.2646C122.618 27.2909 121.75 28.5721 121.212 30.0027C120.69 31.438 120.492 32.9724 120.632 34.4944C120.772 36.0164 121.247 37.4879 122.022 38.8018C122.81 40.1041 123.855 41.2299 125.091 42.1099C126.328 42.9898 127.73 43.6054 129.211 43.9185Z" fill="#C3004B"/>
<path d="M141.471 46.6614L141.755 46.1608L141.258 46.4494C136.687 49.0938 132.42 48.3444 129.623 47.248C126.209 45.912 123.451 43.5134 122.586 41.9317L122.33 41.4648L122.296 41.9962C122.217 43.524 122.5 45.049 123.12 46.4453C123.741 47.8416 124.681 49.0694 125.865 50.0274C127.662 51.4557 129.885 52.2286 132.173 52.2203C132.93 52.2204 133.684 52.1359 134.422 51.9685C135.894 51.6153 137.279 50.9623 138.491 50.0496C139.704 49.1369 140.718 47.9838 141.471 46.6614Z" fill="#C3004B"/>
<path d="M147.463 35.3315L147.578 35.8936C148.669 41.0778 146.637 44.9568 144.741 47.2971C142.422 50.1533 139.305 52.0575 137.546 52.3984L137.028 52.4966L137.519 52.6932C138.598 53.1233 139.75 53.3422 140.911 53.3382C142.789 53.3395 144.628 52.7887 146.201 51.7534C147.461 50.9021 148.516 49.7782 149.29 48.4637C150.064 47.1493 150.537 45.6773 150.675 44.1552C150.797 42.6356 150.609 41.1069 150.123 39.6633C149.636 38.2198 148.862 36.8919 147.847 35.7615L147.463 35.3315Z" fill="#C3004B"/>
<path d="M154.115 32.7948C153.699 31.3253 152.964 29.9675 151.962 28.8201C150.961 27.6726 149.718 26.7643 148.325 26.1609C146.928 25.5741 145.427 25.2817 143.914 25.3017C142.401 25.3218 140.908 25.6539 139.527 26.2776L139.006 26.5141L139.573 26.5756C144.802 27.1345 147.834 30.2795 149.456 32.8194C151.437 35.9213 152.268 39.4993 152.046 41.2898L151.982 41.8181L152.32 41.4096C153.275 40.2194 153.935 38.8178 154.247 37.3201C154.559 35.8224 154.514 34.2714 154.115 32.7948Z" fill="#C3004B"/>
<path d="M57.5132 38.0371C57.5132 31.2527 52.4209 27.7055 47.3895 27.7055C42.3581 27.7055 37.2688 31.2527 37.2688 38.0371C37.2688 44.8214 42.3611 48.3718 47.3895 48.3718C52.4178 48.3718 57.5132 44.8214 57.5132 38.0371ZM44.1531 37.8559C44.1531 34.8983 45.2806 33.1999 47.2523 33.1999C49.3673 33.1999 50.629 35.0764 50.629 38.2183C50.629 41.1759 49.5014 42.8743 47.5327 42.8743C45.4147 42.8743 44.1531 40.9978 44.1531 37.8559ZM68.5726 72.309H67.637C67.2713 72.309 66.7898 72.183 66.7898 71.102V53.2274C66.7227 53.252 66.6587 53.2827 66.5886 53.3072L66.3875 53.3656C66.2808 53.3963 66.1742 53.4301 66.0614 53.4516C65.2832 53.5701 64.4912 53.5639 63.7149 53.4332C63.3227 53.381 62.9279 53.3502 62.5324 53.341H62.5172C61.7544 53.3411 61.0044 53.5378 60.3382 53.9123C60.2682 53.9553 60.2042 54.0013 60.1371 54.0474L59.936 54.1948V58.728C58.9151 57.8066 57.5407 57.3152 55.9224 57.3152C51.656 57.3152 47.103 61.231 47.103 68.4853C47.103 74.078 50.3547 77.9846 55.0112 77.9846C56.6203 77.9846 58.8541 77.441 60.5302 74.9134C60.9232 75.7816 61.5576 76.5164 62.3565 77.0288C63.1553 77.5412 64.0845 77.8092 65.0314 77.8003C67.509 77.8003 69.1759 76.191 69.1759 74.6861C69.1686 73.9255 69.0463 73.1706 68.8133 72.4472C68.7966 72.3986 68.763 72.3579 68.7187 72.3324C68.6744 72.307 68.6225 72.2987 68.5726 72.309ZM59.8933 63.5406V69.9011C59.2838 71.4981 58.0648 72.4902 56.7605 72.4902C54.865 72.4902 53.9446 71.1357 53.9446 68.344C53.9446 65.1438 55.5567 62.8158 57.7814 62.8158C58.5518 62.7853 59.3054 63.0472 59.8933 63.5498V63.5406ZM60.1005 52.0112L60.3017 51.9313C60.9983 51.6716 61.7348 51.5375 62.4776 51.5351H62.502C62.9638 51.5428 63.4247 51.5777 63.8825 51.6396C64.4764 51.7439 65.0826 51.7574 65.6805 51.6795C65.8726 51.639 66.0596 51.5772 66.2382 51.4952L66.357 51.4338L66.418 51.3969L66.5643 51.3109L66.5947 51.2925C66.6526 51.2557 66.7136 51.228 66.7715 51.1881V46.959C67.7924 47.8804 69.1668 48.3718 70.782 48.3718C75.0485 48.3718 79.6044 44.456 79.6044 37.2048C79.6044 31.609 76.3528 27.7055 71.6962 27.7055C70.7486 27.6853 69.8095 27.8893 68.9542 28.3011C68.099 28.7128 67.3514 29.3209 66.7715 30.0765V29.5451C66.7715 28.4733 66.0858 27.8836 64.8424 27.8836C63.2256 27.8599 61.6125 28.0457 60.0426 28.4364C59.9978 28.4475 59.958 28.4736 59.9298 28.5104C59.9016 28.5472 59.8866 28.5926 59.8872 28.6391V52.091C59.9665 52.0603 60.0335 52.0388 60.1005 52.0112ZM66.7837 42.1525V35.7889C67.4084 34.1919 68.6122 33.1999 69.9165 33.1999C71.812 33.1999 72.7324 34.5574 72.7324 37.3461C72.7324 40.5493 71.1203 42.8743 68.8956 42.8743C68.1268 42.9082 67.3734 42.6507 66.7837 42.1525ZM79.9579 57.3306C74.1129 57.3306 69.8708 61.7071 69.8708 67.7359C69.8708 73.6818 74.0855 77.9999 79.8879 77.9999C84.005 77.9999 86.7386 75.9729 86.7386 74.6216C86.6629 73.6777 86.3618 72.7662 85.8609 71.965C85.8316 71.9198 85.7859 71.8878 85.7337 71.8757C85.6814 71.8637 85.6265 71.8726 85.5806 71.9005C84.5993 72.4963 83.0359 72.8495 81.3994 72.8495C79.0498 72.8495 77.4834 71.7899 76.9531 69.8581H84.4926C86.2723 69.8581 87.1134 69.4681 87.6986 68.3686C88.2363 67.3169 88.5104 66.1486 88.497 64.9656C88.497 60.4049 85.0655 57.3306 79.9579 57.3306ZM81.9998 64.6155C82.0091 65.0153 81.9397 65.4131 81.7956 65.7857H76.816C77.1146 63.7095 78.3032 62.481 80.0646 62.481C81.2592 62.481 81.9998 63.2887 81.9998 64.6309V64.6155ZM99.5472 62.8281C100.888 62.8281 101.68 63.6849 102.089 65.5922C102.098 65.6433 102.127 65.6887 102.169 65.719C102.211 65.7493 102.263 65.7622 102.314 65.7549C103.789 65.6179 105.224 65.201 106.544 64.5265C107.474 63.989 107.946 63.341 107.946 62.6039C107.955 62.0898 107.81 61.5849 107.532 61.1542C106.133 58.7863 103.113 57.3152 99.6538 57.3152C93.8636 57.3152 89.9537 61.2494 89.9537 67.1032C89.9537 73.4085 94.3299 77.9846 100.358 77.9846C104.646 77.9846 107.489 75.7825 107.489 74.3268C107.406 73.3173 107.081 72.3432 106.541 71.4889C106.511 71.4434 106.465 71.4114 106.412 71.4C106.359 71.3885 106.304 71.3984 106.258 71.4275C105.029 72.1353 103.635 72.5 102.22 72.484C98.9499 72.484 96.838 70.3342 96.838 67.0326C96.838 64.3668 97.8253 62.8281 99.5472 62.8281ZM119.078 57.3306C114.05 57.3306 108.961 60.8809 108.961 67.6653C108.961 74.4496 114.05 77.9999 119.078 77.9999C124.107 77.9999 129.196 74.4588 129.196 67.6653C129.196 60.8717 124.11 57.3306 119.078 57.3306ZM119.222 72.4994C117.104 72.4994 115.842 70.6259 115.842 67.4841C115.842 64.5265 116.973 62.8281 118.941 62.8281C121.056 62.8281 122.318 64.7046 122.318 67.8465C122.318 70.8041 121.19 72.4994 119.222 72.4994ZM143.175 57.3306C142.211 57.3204 141.258 57.5469 140.401 57.9905C139.543 58.4341 138.805 59.0814 138.25 59.8766V59.1733C138.25 58.1014 137.565 57.5118 136.321 57.5118C134.704 57.4875 133.091 57.6733 131.521 58.0646C131.477 58.0751 131.437 58.1006 131.409 58.1369C131.381 58.1732 131.365 58.2181 131.366 58.2642V76.2278C131.366 76.7254 131.567 77.5638 132.908 77.5638H138.034C138.089 77.563 138.141 77.5408 138.18 77.5018C138.218 77.4628 138.24 77.4101 138.241 77.355V65.2144C138.231 64.9307 138.292 64.6489 138.418 64.3954C138.545 64.1419 138.734 63.925 138.966 63.7648C139.137 63.659 139.333 63.601 139.533 63.5966C139.733 63.5923 139.931 63.6419 140.106 63.7402C140.458 63.9547 140.768 64.2327 141.02 64.5602C141.542 65.1468 142.136 65.8133 143.434 66.0037C143.873 66.0756 144.323 66.0481 144.75 65.9233C145.178 65.7984 145.572 65.5794 145.906 65.282C147.009 64.3207 147.502 62.6745 147.502 61.4706C147.527 58.7525 145.348 57.3306 143.175 57.3306Z" fill="#555153"/>
<path d="M32.5542 27.8593C32.5816 27.8593 32.7736 27.8839 32.9382 27.9084C33.1667 27.9361 33.4745 27.9637 33.8524 27.9975C34.2882 28.0313 34.6966 28.0466 35.0988 28.0497C35.5443 28.0645 35.9902 28.0491 36.4336 28.0036C36.8308 27.975 37.2234 27.9009 37.6039 27.7825C38.2435 27.5822 38.8279 27.2341 39.3104 26.7659C39.7193 26.3551 40.0363 25.8608 40.2399 25.3163C40.4358 24.7972 40.5608 24.2538 40.6117 23.7008C40.6545 23.1981 40.6545 22.6926 40.6117 22.1898C40.5721 21.7783 40.5172 21.4036 40.4533 21.0811L40.4136 20.8968C40.3832 20.7596 40.3649 20.6798 40.3588 20.6573C40.3388 20.6114 40.3031 20.5744 40.2582 20.5528L40.1729 20.5313L39.5024 20.5528C39.1063 20.5528 38.573 20.5713 37.7197 20.5713C35.5864 20.5283 33.7579 20.4484 32.1793 20.3256C30.6007 20.2027 29.1319 20.0707 27.9525 19.9509C26.7731 19.8311 25.6912 19.7512 24.7161 19.7144C23.8588 19.676 23 19.7358 22.1562 19.8925C21.3758 20.042 20.6259 20.3223 19.9376 20.7217C19.2385 21.1112 18.6386 21.659 18.1853 22.3219C17.8132 22.8791 17.5552 23.5056 17.4265 24.1646C17.3174 24.7381 17.2826 25.3235 17.3229 25.906C17.3565 26.3448 17.4248 26.7803 17.527 27.2082C17.5971 27.46 17.6581 27.6781 17.6764 27.7149C17.6814 27.7202 17.6854 27.7265 17.688 27.7334C17.6906 27.7402 17.6918 27.7475 17.6916 27.7549L17.7373 27.8316C17.7373 27.8501 17.7647 27.8685 17.8318 27.8685C18.9377 27.6359 20.0575 27.4758 21.184 27.3894C22.1166 27.3157 23.0735 27.2788 24.0395 27.2788H24.71C24.7252 27.2792 24.7401 27.2826 24.754 27.2889C24.7679 27.2951 24.7805 27.3041 24.791 27.3152C24.8014 27.3263 24.8096 27.3394 24.8151 27.3537C24.8205 27.368 24.8231 27.3833 24.8227 27.3986L24.5606 44.361C24.5465 45.4028 24.6999 46.4399 25.0147 47.4323C25.2677 48.2066 25.6835 48.9169 26.2337 49.5145C26.7215 50.038 27.3191 50.4451 27.983 50.7062C28.6523 50.9634 29.3633 51.0926 30.0796 51.087C30.6402 51.0796 31.1959 50.9811 31.7253 50.7953C32.2607 50.6096 32.7723 50.36 33.249 50.052C33.6889 49.7748 34.0906 49.4402 34.4436 49.0569C34.7319 48.7616 34.9506 48.4047 35.0836 48.0127C35.1445 47.8254 35.108 47.7609 35.0836 47.7271C34.9832 47.6243 34.8656 47.54 34.7362 47.4783C34.5187 47.3556 34.3144 47.2105 34.1267 47.0453C33.86 46.7948 33.6383 46.4997 33.4715 46.173C33.2253 45.6772 33.0459 45.1504 32.9382 44.6067C32.774 43.7707 32.6822 42.9219 32.6639 42.0699L32.4384 27.9852C32.4389 27.9534 32.4508 27.9229 32.4719 27.8992C32.4823 27.8874 32.495 27.8778 32.5091 27.871C32.5232 27.8641 32.5385 27.8602 32.5542 27.8593Z" fill="#555153"/>
</svg>
