<svg width="54" height="53" viewBox="0 0 54 53" fill="none" xmlns="http://www.w3.org/2000/svg">
<path d="M42.8345 38.9475C40.3987 42.9513 37.4361 42.7657 34.5795 41.0687C33.0879 39.5004 30.3155 38.921 28.578 41.3339C26.6831 43.402 26.755 44.0384 27.4824 46.9551C28.2097 49.8983 28.2492 52.4437 23.5499 53.0005C19.838 52.4968 20.0666 49.421 20.6942 46.1596C21.3218 42.8983 22.2954 39.4513 19.9139 38.2316C18.0103 36.9588 16.6719 39.1596 14.9888 41.3339C13.2527 43.4816 11.2781 45.5763 8.0493 44.0384C5.14352 41.6255 6.26538 40.2202 7.81389 38.4172C9.3624 36.6142 10.1521 35.6973 9.03377 31.4549C8.56535 29.7314 7.38837 28.6331 5.02722 28.58C2.71914 28.527 0.38678 28.0497 0.166329 24.6028C-0.00825326 22.5081 1.56171 21.6596 3.18374 20.9967C4.83231 20.3338 6.50643 19.8565 6.54185 18.1861C6.63006 16.5687 5.54828 15.4285 4.86477 14.2353C4.18126 13.0421 3.89603 11.7959 5.55095 9.93986C8.34905 7.65955 10.5675 9.59516 12.7851 11.6899C13.6377 11.9547 14.6324 12.9547 17.1351 12.4547C19.3184 11.0229 19.2298 9.93986 18.6163 7.84515C17.0905 5.37924 16.0152 3.01939 20.001 1.93226C23.4553 0.977717 24.7694 3.33757 25.9489 6.06864C27.1548 8.7997 28.8194 8.44327 31.7351 9.00009C35.8967 9.76903 38.3276 8.34894 41.2403 4.47772C44.153 0.606505 47.0074 -2.28365 50.617 2.48908C54.5703 7.50046 50.7636 9.83379 46.3216 11.902C41.8803 13.8376 38.5045 13.7615 39.7051 17.5002C40.4099 19.6744 42.1949 19.4323 43.4956 19.4323C45.941 18.6103 48.5702 18.1596 49.8238 21.8982C51.156 25.849 47.9407 26.7505 44.3303 27.1217C40.7198 27.4929 38.9188 27.1973 38.6439 29.0003C38.342 30.8829 38.5212 31.7884 40.6114 32.902C42.7015 34.0422 44.4711 35.5535 42.8345 38.9475ZM49.0639 45.046C46.5432 45.046 45.2536 43.0839 45.2643 41.0687C45.275 39.0535 46.559 37.0914 49.1062 37.0914C51.7595 37.0914 53.0757 39.0535 53.065 41.0687C53.0542 43.0839 51.7172 45.046 49.0639 45.046Z" fill="#FF406E"/>
<path d="M21.7469 26.9688C21.7567 26.9785 21.7762 26.9834 21.8055 26.9834C22.3329 26.3779 22.7528 25.7188 23.0653 25.0059C23.3876 24.293 23.6415 23.5264 23.827 22.7061C24.0223 21.8857 24.1737 21.0117 24.2811 20.084C24.3983 19.1465 24.5155 18.1553 24.6327 17.1104C24.6522 16.9248 24.701 16.749 24.7792 16.583C24.8671 16.417 24.9745 16.2754 25.1014 16.1582C25.2284 16.041 25.3749 15.958 25.5409 15.9092C25.7069 15.8604 25.8827 15.8652 26.0682 15.9238C26.2538 15.9727 26.3905 16.0654 26.4784 16.2021C26.5663 16.3291 26.6249 16.4805 26.6542 16.6562C26.6932 16.8223 26.7079 17.0029 26.6981 17.1982C26.6884 17.3936 26.6737 17.5791 26.6542 17.7549C26.576 18.5264 26.4296 19.3271 26.2147 20.1572C25.9999 20.9775 25.7167 21.7979 25.3651 22.6182C25.0135 23.4385 24.5936 24.2393 24.1053 25.0205C23.6171 25.792 23.0604 26.5049 22.4354 27.1592C22.8651 27.2568 23.3241 27.3496 23.8124 27.4375C24.3007 27.5156 24.7938 27.5889 25.2919 27.6572C25.7899 27.7158 26.288 27.7646 26.786 27.8037C27.2938 27.8428 27.7772 27.8672 28.2362 27.877C28.1581 27.0176 28.0995 26.1729 28.0604 25.3428C28.0214 24.5127 28.0018 23.7266 28.0018 22.9844C28.0018 22.6719 28.0018 22.291 28.0018 21.8418C28.0116 21.3828 28.0311 20.8945 28.0604 20.377C28.0995 19.8496 28.1581 19.3174 28.2362 18.7803C28.3143 18.2334 28.4218 17.7207 28.5585 17.2422C28.6952 16.7539 28.8661 16.3193 29.0712 15.9385C29.286 15.5576 29.5448 15.2695 29.8475 15.0742C30.0038 14.9668 30.1796 14.874 30.3749 14.7959C30.5702 14.7178 30.7655 14.6787 30.9608 14.6787C31.078 14.6787 31.1805 14.7129 31.2684 14.7812C31.3563 14.8398 31.4003 14.9375 31.4003 15.0742C31.4003 15.2207 31.371 15.3672 31.3124 15.5137C31.0585 16.0898 30.8436 16.71 30.6678 17.374C30.4921 18.0283 30.3456 18.6973 30.2284 19.3809C30.1112 20.0645 30.0184 20.7383 29.9501 21.4023C29.8817 22.0566 29.828 22.667 29.7889 23.2334C29.7499 23.79 29.7255 24.2832 29.7157 24.7129C29.7059 25.1328 29.701 25.4502 29.701 25.665C29.701 25.9385 29.701 26.1826 29.701 26.3975C29.7108 26.6025 29.7157 26.793 29.7157 26.9688C29.7157 27.1348 29.7157 27.291 29.7157 27.4375C29.7255 27.584 29.7303 27.7305 29.7303 27.877C29.9452 27.8574 30.1356 27.8379 30.3016 27.8184C30.4774 27.7891 30.6434 27.7598 30.7997 27.7305C30.9559 27.7012 31.1171 27.667 31.2831 27.6279C31.4491 27.5889 31.6346 27.54 31.8397 27.4814L31.9862 27.7744C31.869 27.833 31.7225 27.9014 31.5468 27.9795C31.3807 28.0479 31.1952 28.1211 30.9901 28.1992C30.7948 28.2773 30.5897 28.3555 30.3749 28.4336C30.16 28.502 29.9452 28.5654 29.7303 28.624C29.7303 29.7178 29.745 30.792 29.7743 31.8467C29.8134 32.9014 29.8866 33.9609 29.994 35.0254L29.7303 35.1133C29.369 34.2246 29.076 33.2578 28.8514 32.2129C28.6366 31.168 28.4657 30.0889 28.3387 28.9756C27.6649 29.1221 26.9862 29.2246 26.3026 29.2832C25.619 29.332 24.9403 29.3564 24.2665 29.3564C24.1005 29.3564 23.8905 29.3564 23.6366 29.3564C23.3925 29.3564 23.1337 29.3467 22.8602 29.3271C22.5868 29.2979 22.3134 29.2588 22.0399 29.21C21.7665 29.1514 21.5223 29.0684 21.3075 28.9609C21.0927 28.8535 20.9169 28.7168 20.7802 28.5508C20.6434 28.375 20.5751 28.1602 20.5751 27.9062C20.5751 27.8184 20.5946 27.7109 20.6337 27.584C20.6727 27.4473 20.7362 27.3252 20.8241 27.2178C20.912 27.1006 21.0292 27.0176 21.1757 26.9688C21.3319 26.9102 21.5223 26.9102 21.7469 26.9688Z" fill="white"/>
</svg>
