<svg width="54" height="53" viewBox="0 0 54 53" fill="none" xmlns="http://www.w3.org/2000/svg">
<path d="M42.8345 38.9475C40.3987 42.9513 37.4361 42.7657 34.5795 41.0687C33.0879 39.5004 30.3155 38.921 28.578 41.3339C26.6831 43.402 26.755 44.0384 27.4824 46.9551C28.2097 49.8983 28.2492 52.4437 23.5499 53.0005C19.838 52.4968 20.0666 49.421 20.6942 46.1596C21.3218 42.8983 22.2954 39.4513 19.9139 38.2316C18.0103 36.9588 16.6719 39.1596 14.9888 41.3339C13.2527 43.4816 11.2781 45.5763 8.0493 44.0384C5.14352 41.6255 6.26538 40.2202 7.81389 38.4172C9.3624 36.6142 10.1521 35.6973 9.03377 31.4549C8.56535 29.7314 7.38837 28.6331 5.02722 28.58C2.71914 28.527 0.38678 28.0497 0.166329 24.6028C-0.00825327 22.5081 1.56171 21.6596 3.18374 20.9967C4.83231 20.3338 6.50643 19.8565 6.54185 18.1861C6.63006 16.5687 5.54828 15.4285 4.86477 14.2353C4.18126 13.0421 3.89603 11.7959 5.55095 9.93986C8.34905 7.65955 10.5675 9.59516 12.7851 11.6899C13.6377 11.9547 14.6324 12.9547 17.1351 12.4547C19.3184 11.0229 19.2298 9.93986 18.6163 7.84515C17.0905 5.37924 16.0152 3.01939 20.001 1.93226C23.4553 0.977717 24.7694 3.33757 25.9488 6.06864C27.1548 8.7997 28.8194 8.44327 31.7351 9.00009C35.8967 9.76903 38.3276 8.34894 41.2403 4.47772C44.153 0.606505 47.0074 -2.28365 50.617 2.48908C54.5703 7.50046 50.7636 9.83379 46.3216 11.902C41.8803 13.8376 38.5045 13.7615 39.7051 17.5002C40.4099 19.6744 42.1949 19.4323 43.4956 19.4323C45.941 18.6103 48.5702 18.1596 49.8238 21.8982C51.156 25.849 47.9407 26.7505 44.3303 27.1217C40.7198 27.4929 38.9188 27.1973 38.6439 29.0003C38.342 30.8829 38.5212 31.7884 40.6114 32.902C42.7015 34.0422 44.4711 35.5535 42.8345 38.9475ZM49.0639 45.046C46.5432 45.046 45.2536 43.0839 45.2643 41.0687C45.275 39.0535 46.559 37.0914 49.1062 37.0914C51.7595 37.0914 53.0757 39.0535 53.065 41.0687C53.0542 43.0839 51.7172 45.046 49.0639 45.046Z" fill="#FF406E"/>
<path d="M29.7302 32.2861C29.3005 32.6279 28.822 32.9307 28.2947 33.1943C27.7771 33.4482 27.2351 33.6631 26.6687 33.8389C26.1023 34.0146 25.5261 34.1465 24.9402 34.2344C24.364 34.3223 23.8025 34.3662 23.2556 34.3662C23.0408 34.3662 22.8259 34.3467 22.6111 34.3076C22.406 34.2686 22.2205 34.2002 22.0544 34.1025C21.8982 34.0049 21.7664 33.873 21.6589 33.707C21.5613 33.541 21.5125 33.3311 21.5125 33.0771C21.5125 32.9795 21.5271 32.877 21.5564 32.7695C21.5857 32.6523 21.6248 32.5449 21.6736 32.4473C21.7322 32.3496 21.8054 32.2715 21.8933 32.2129C21.9812 32.1445 22.0837 32.1104 22.2009 32.1104C22.2888 32.1104 22.3523 32.1201 22.3914 32.1396C22.8308 32.2666 23.28 32.3496 23.739 32.3887C24.198 32.4277 24.657 32.457 25.116 32.4766C24.8523 31.1191 24.6863 29.7422 24.6179 28.3457C24.5496 26.9492 24.5154 25.5723 24.5154 24.2148C24.5154 23.4336 24.5251 22.6621 24.5447 21.9004C24.5642 21.1289 24.6033 20.3623 24.6619 19.6006C24.4763 19.7861 24.2517 19.9961 23.988 20.2305C23.7244 20.4648 23.446 20.6943 23.1531 20.9189C22.8601 21.1436 22.5623 21.3438 22.2595 21.5195C21.9666 21.6953 21.698 21.8174 21.4539 21.8857L21.3074 21.666C21.6296 21.373 21.947 21.002 22.2595 20.5527C22.5818 20.0938 22.8845 19.6104 23.1677 19.1025C23.4607 18.585 23.7292 18.0723 23.9734 17.5645C24.2175 17.0469 24.4275 16.583 24.6033 16.1729C24.7009 15.9678 24.7888 15.7334 24.8669 15.4697C24.9451 15.1963 25.0378 14.9619 25.1453 14.7666C25.2039 14.6299 25.2722 14.5371 25.3503 14.4883C25.4285 14.4395 25.5505 14.415 25.7166 14.415C25.8337 14.415 25.9802 14.4443 26.156 14.5029C26.3416 14.5615 26.5173 14.6396 26.6833 14.7373C26.8494 14.835 26.991 14.9473 27.1082 15.0742C27.2253 15.2012 27.2839 15.3379 27.2839 15.4844V15.5869C26.9128 16.9346 26.6052 18.292 26.3611 19.6592C26.1267 21.0264 25.946 22.4082 25.8191 23.8047C25.7019 25.2012 25.6238 26.6221 25.5847 28.0674C25.5554 29.5029 25.5603 30.9727 25.5994 32.4766H25.8923C26.1853 32.4766 26.4929 32.4717 26.8152 32.4619C27.1375 32.4424 27.4597 32.418 27.782 32.3887C28.1042 32.3496 28.4216 32.3057 28.7341 32.2568C29.0466 32.1982 29.3396 32.1299 29.613 32.0518L29.7302 32.2861Z" fill="white"/>
</svg>
