<svg width="60" height="60" viewBox="0 0 60 60" fill="none" xmlns="http://www.w3.org/2000/svg">
<g filter="url(#filter0_d_73_7674)">
<path d="M52 11C52 7.68629 49.3137 5 46 5H12C8.68629 5 6 7.68629 6 11V45C6 48.3137 8.68629 51 12 51H46C49.3137 51 52 48.3137 52 45V11Z" fill="white"/>
<path d="M24.2946 19.1143C23.8131 18.4402 23.9692 17.5033 24.6433 17.0218C25.3174 16.5403 26.2543 16.6965 26.7358 17.3706L24.2946 19.1143ZM32.4849 28L33.7055 27.1282C34.078 27.6497 34.078 28.3503 33.7055 28.8719L32.4849 28ZM26.7358 38.6294C26.2543 39.3036 25.3174 39.4597 24.6433 38.9782C23.9692 38.4967 23.8131 37.5598 24.2946 36.8857L26.7358 38.6294ZM26.7358 17.3706L33.7055 27.1282L31.2643 28.8719L24.2946 19.1143L26.7358 17.3706ZM33.7055 28.8719L26.7358 38.6294L24.2946 36.8857L31.2643 27.1282L33.7055 28.8719Z" fill="#F42758"/>
</g>
<defs>
<filter id="filter0_d_73_7674" x="0" y="0" width="60" height="60" filterUnits="userSpaceOnUse" color-interpolation-filters="sRGB">
<feFlood flood-opacity="0" result="BackgroundImageFix"/>
<feColorMatrix in="SourceAlpha" type="matrix" values="0 0 0 0 0 0 0 0 0 0 0 0 0 0 0 0 0 0 127 0" result="hardAlpha"/>
<feOffset dx="1" dy="2"/>
<feGaussianBlur stdDeviation="3.5"/>
<feComposite in2="hardAlpha" operator="out"/>
<feColorMatrix type="matrix" values="0 0 0 0 0 0 0 0 0 0 0 0 0 0 0 0 0 0 0.13 0"/>
<feBlend mode="normal" in2="BackgroundImageFix" result="effect1_dropShadow_73_7674"/>
<feBlend mode="normal" in="SourceGraphic" in2="effect1_dropShadow_73_7674" result="shape"/>
</filter>
</defs>
</svg>
