<svg width="54" height="53" viewBox="0 0 54 53" fill="none" xmlns="http://www.w3.org/2000/svg">
<path d="M42.8345 38.9475C40.3987 42.9513 37.4361 42.7657 34.5795 41.0687C33.0879 39.5004 30.3155 38.921 28.578 41.3339C26.6831 43.402 26.755 44.0384 27.4824 46.9551C28.2097 49.8983 28.2492 52.4437 23.5499 53.0005C19.838 52.4968 20.0666 49.421 20.6942 46.1596C21.3218 42.8983 22.2954 39.4513 19.9139 38.2316C18.0103 36.9588 16.6719 39.1596 14.9888 41.3339C13.2527 43.4816 11.2781 45.5763 8.0493 44.0384C5.14352 41.6255 6.26538 40.2202 7.81389 38.4172C9.3624 36.6142 10.1521 35.6973 9.03377 31.4549C8.56535 29.7314 7.38837 28.6331 5.02722 28.58C2.71914 28.527 0.38678 28.0497 0.166329 24.6028C-0.00825326 22.5081 1.56171 21.6596 3.18374 20.9967C4.83231 20.3338 6.50643 19.8565 6.54185 18.1861C6.63006 16.5687 5.54828 15.4285 4.86477 14.2353C4.18126 13.0421 3.89603 11.7959 5.55095 9.93986C8.34905 7.65955 10.5675 9.59516 12.7851 11.6899C13.6377 11.9547 14.6324 12.9547 17.1351 12.4547C19.3184 11.0229 19.2298 9.93986 18.6163 7.84515C17.0905 5.37924 16.0152 3.01939 20.001 1.93226C23.4553 0.977717 24.7694 3.33757 25.9489 6.06864C27.1548 8.7997 28.8194 8.44327 31.7351 9.00009C35.8967 9.76903 38.3276 8.34894 41.2403 4.47772C44.153 0.606505 47.0074 -2.28365 50.617 2.48908C54.5703 7.50046 50.7636 9.83379 46.3216 11.902C41.8803 13.8376 38.5045 13.7615 39.7051 17.5002C40.4099 19.6744 42.1949 19.4323 43.4956 19.4323C45.941 18.6103 48.5702 18.1596 49.8238 21.8982C51.156 25.849 47.9407 26.7505 44.3303 27.1217C40.7198 27.4929 38.9188 27.1973 38.6439 29.0003C38.342 30.8829 38.5212 31.7884 40.6114 32.902C42.7015 34.0422 44.4711 35.5535 42.8345 38.9475ZM49.0639 45.046C46.5432 45.046 45.2536 43.0839 45.2643 41.0687C45.275 39.0535 46.559 37.0914 49.1062 37.0914C51.7595 37.0914 53.0757 39.0535 53.065 41.0687C53.0542 43.0839 51.7172 45.046 49.0639 45.046Z" fill="#FF406E"/>
<path d="M30.785 30.4551C30.785 31.1289 30.6434 31.7246 30.3602 32.2422C30.077 32.7598 29.7108 33.1943 29.2616 33.5459C28.8221 33.8975 28.3192 34.1611 27.7528 34.3369C27.1962 34.5225 26.6395 34.6152 26.0829 34.6152C25.6434 34.6152 25.1893 34.5664 24.7206 34.4688C24.2518 34.3711 23.8221 34.2051 23.4315 33.9707C23.0409 33.7363 22.7186 33.4238 22.4647 33.0332C22.2108 32.6426 22.0839 32.1543 22.0839 31.5684C22.0839 31.1191 22.162 30.7188 22.3182 30.3672C22.4843 30.0156 22.6991 29.708 22.9628 29.4443C23.2362 29.1807 23.5487 28.9609 23.9003 28.7852C24.2616 28.5996 24.6376 28.4629 25.0282 28.375L25.1161 28.6094C24.6571 28.873 24.2714 29.2588 23.9589 29.7666C23.6464 30.2744 23.4901 30.8408 23.4901 31.4658C23.4901 31.8662 23.5536 32.2373 23.6805 32.5791C23.8075 32.9111 23.9833 33.1992 24.2079 33.4434C24.4325 33.6875 24.701 33.8779 25.0135 34.0146C25.3358 34.1514 25.6874 34.2197 26.0682 34.2197C26.5663 34.2197 26.996 34.1172 27.3573 33.9121C27.7186 33.707 28.0165 33.4434 28.2509 33.1211C28.495 32.7988 28.6708 32.4473 28.7782 32.0664C28.8954 31.6758 28.954 31.2949 28.954 30.9238C28.954 30.1914 28.8514 29.5518 28.6464 29.0049C28.4413 28.4482 28.1532 27.9795 27.7821 27.5986C27.411 27.2178 26.9618 26.9199 26.4344 26.7051C25.9071 26.4902 25.3163 26.3486 24.662 26.2803V25.6797C25.2577 25.5918 25.8241 25.4307 26.3612 25.1963C26.8983 24.9619 27.3671 24.6445 27.7675 24.2441C28.1776 23.8438 28.4999 23.3604 28.7343 22.7939C28.9784 22.2275 29.1005 21.5781 29.1005 20.8457C29.1005 20.2598 29.0028 19.6689 28.8075 19.0732C28.6219 18.4775 28.3534 17.9404 28.0018 17.4619C27.6503 16.9736 27.2206 16.5781 26.7128 16.2754C26.2147 15.9629 25.6532 15.8066 25.0282 15.8066C24.618 15.8066 24.2225 15.8848 23.8417 16.041C23.4706 16.1875 23.1385 16.3975 22.8456 16.6709C22.5624 16.9346 22.3329 17.2471 22.1571 17.6084C21.9911 17.9697 21.9081 18.3604 21.9081 18.7803C21.9081 19.1025 21.9423 19.3955 22.0106 19.6592C22.0887 19.9229 22.1913 20.1768 22.3182 20.4209C22.455 20.665 22.6112 20.8994 22.787 21.124C22.9628 21.3486 23.1483 21.583 23.3436 21.8271C23.451 21.9639 23.5438 22.1152 23.6219 22.2812C23.7001 22.4375 23.7391 22.623 23.7391 22.8379C23.7391 23.1309 23.6415 23.3994 23.4462 23.6436C23.2509 23.8877 22.9872 24.0098 22.6552 24.0098C22.2743 24.0098 21.9618 23.873 21.7177 23.5996C21.4833 23.3262 21.2928 22.999 21.1464 22.6182C21.0096 22.2373 20.9169 21.8369 20.868 21.417C20.8192 20.9971 20.7948 20.6406 20.7948 20.3477C20.7948 19.5957 20.912 18.8584 21.1464 18.1357C21.3905 17.4131 21.7372 16.7686 22.1864 16.2021C22.6454 15.6357 23.1971 15.1816 23.8417 14.8398C24.496 14.4883 25.2284 14.3125 26.0389 14.3125C26.7714 14.3125 27.4501 14.4736 28.0751 14.7959C28.7001 15.1182 29.2421 15.543 29.701 16.0703C30.16 16.5977 30.5214 17.2031 30.785 17.8867C31.0487 18.5605 31.1805 19.2588 31.1805 19.9814C31.1805 20.6748 31.0634 21.3291 30.829 21.9443C30.5946 22.5498 30.2675 23.1113 29.8475 23.6289C29.4276 24.1367 28.9247 24.5859 28.3387 24.9766C27.7528 25.3672 27.1034 25.6846 26.3905 25.9287C26.9276 26.0557 27.4598 26.2461 27.9872 26.5C28.5145 26.7539 28.9833 27.0713 29.3934 27.4521C29.8134 27.833 30.1503 28.2773 30.4042 28.7852C30.6581 29.2832 30.785 29.8398 30.785 30.4551Z" fill="white"/>
</svg>
