<svg width="54" height="53" viewBox="0 0 54 53" fill="none" xmlns="http://www.w3.org/2000/svg">
<path d="M42.8345 38.9475C40.3987 42.9513 37.4361 42.7657 34.5795 41.0687C33.0879 39.5004 30.3155 38.921 28.578 41.3339C26.6831 43.402 26.755 44.0384 27.4824 46.9551C28.2097 49.8983 28.2492 52.4437 23.5499 53.0005C19.838 52.4968 20.0666 49.421 20.6942 46.1596C21.3218 42.8983 22.2954 39.4513 19.9139 38.2316C18.0103 36.9588 16.6719 39.1596 14.9888 41.3339C13.2527 43.4816 11.2781 45.5763 8.0493 44.0384C5.14352 41.6255 6.26538 40.2202 7.81389 38.4172C9.3624 36.6142 10.1521 35.6973 9.03377 31.4549C8.56535 29.7314 7.38837 28.6331 5.02722 28.58C2.71914 28.527 0.38678 28.0497 0.166329 24.6028C-0.00825326 22.5081 1.56171 21.6596 3.18374 20.9967C4.83231 20.3338 6.50643 19.8565 6.54185 18.1861C6.63006 16.5687 5.54828 15.4285 4.86477 14.2353C4.18126 13.0421 3.89603 11.7959 5.55095 9.93986C8.34905 7.65955 10.5675 9.59516 12.7851 11.6899C13.6377 11.9547 14.6324 12.9547 17.1351 12.4547C19.3184 11.0229 19.2298 9.93986 18.6163 7.84515C17.0905 5.37924 16.0152 3.01939 20.001 1.93226C23.4553 0.977717 24.7694 3.33757 25.9489 6.06864C27.1548 8.7997 28.8194 8.44327 31.7351 9.00009C35.8967 9.76903 38.3276 8.34894 41.2403 4.47772C44.153 0.606505 47.0074 -2.28365 50.617 2.48908C54.5703 7.50046 50.7636 9.83379 46.3216 11.902C41.8803 13.8376 38.5045 13.7615 39.7051 17.5002C40.4099 19.6744 42.1949 19.4323 43.4956 19.4323C45.941 18.6103 48.5702 18.1596 49.8238 21.8982C51.156 25.849 47.9407 26.7505 44.3303 27.1217C40.7198 27.4929 38.9188 27.1973 38.6439 29.0003C38.342 30.8829 38.5212 31.7884 40.6114 32.902C42.7015 34.0422 44.4711 35.5535 42.8345 38.9475ZM49.0639 45.046C46.5432 45.046 45.2536 43.0839 45.2643 41.0687C45.275 39.0535 46.559 37.0914 49.1062 37.0914C51.7595 37.0914 53.0757 39.0535 53.065 41.0687C53.0542 43.0839 51.7172 45.046 49.0639 45.046Z" fill="#FF406E"/>
<path d="M31.3124 34.4541C30.5214 34.2393 29.7157 34.1025 28.8954 34.0439C28.0848 33.9951 27.2792 33.9707 26.4784 33.9707C25.8339 33.9707 25.1747 33.9854 24.5009 34.0146C23.8368 34.0537 23.1874 34.1465 22.5526 34.293H22.3475C22.0741 34.293 21.8593 34.1953 21.703 34C21.5468 33.7949 21.4686 33.5654 21.4686 33.3115C21.4686 33.0479 21.5321 32.8379 21.6591 32.6816C21.7958 32.5156 21.9618 32.3887 22.1571 32.3008C22.3524 32.2129 22.5673 32.1543 22.8016 32.125C23.0458 32.0957 23.2704 32.0811 23.4755 32.0811H23.6219C24.4618 31.6123 25.2382 31.041 25.951 30.3672C26.6737 29.6934 27.2987 28.9463 27.826 28.126C28.3534 27.3057 28.7635 26.4316 29.0565 25.5039C29.3593 24.5762 29.5106 23.6289 29.5106 22.6621C29.5106 22.2227 29.4716 21.7539 29.3934 21.2559C29.3153 20.7578 29.1981 20.2646 29.0419 19.7764C28.8856 19.2783 28.6854 18.8047 28.4413 18.3555C28.1971 17.9062 27.9042 17.5107 27.5624 17.1689C27.2206 16.8174 26.8348 16.5391 26.4052 16.334C25.9755 16.1289 25.4921 16.0264 24.955 16.0264C24.5448 16.0264 24.1493 16.0996 23.7684 16.2461C23.3973 16.3926 23.0653 16.5977 22.7723 16.8613C22.4891 17.125 22.2596 17.4375 22.0839 17.7988C21.9178 18.1504 21.8348 18.5312 21.8348 18.9414C21.8348 19.2539 21.869 19.5469 21.9374 19.8203C22.0155 20.084 22.118 20.3379 22.245 20.582C22.3817 20.8164 22.5331 21.0459 22.6991 21.2705C22.8749 21.4854 23.0653 21.7002 23.2704 21.915C23.3876 22.0518 23.4803 22.1836 23.5487 22.3105C23.6268 22.4277 23.6659 22.584 23.6659 22.7793C23.6659 22.9258 23.6415 23.0771 23.5927 23.2334C23.5438 23.3896 23.4755 23.5361 23.3876 23.6729C23.2997 23.7998 23.1874 23.9072 23.0507 23.9951C22.9237 24.083 22.7772 24.127 22.6112 24.127C22.2303 24.127 21.9178 23.9902 21.6737 23.7168C21.4296 23.4434 21.2343 23.1162 21.0878 22.7354C20.951 22.3447 20.8534 21.9395 20.7948 21.5195C20.746 21.0996 20.7216 20.748 20.7216 20.4648C20.7216 19.8887 20.785 19.332 20.912 18.7949C21.0389 18.2578 21.2343 17.7549 21.4979 17.2861C21.7616 16.8076 22.0887 16.3779 22.4794 15.9971C22.8798 15.6064 23.3436 15.2793 23.871 15.0156C24.1835 14.8594 24.5155 14.7422 24.8671 14.6641C25.2284 14.5762 25.5946 14.5322 25.9657 14.5322C26.4735 14.5322 26.952 14.6104 27.4012 14.7666C27.8602 14.9131 28.285 15.123 28.6757 15.3965C29.0663 15.6602 29.413 15.9824 29.7157 16.3633C30.0282 16.7344 30.2919 17.1445 30.5067 17.5938C30.7411 18.0918 30.9022 18.6143 30.9901 19.1611C31.0878 19.708 31.1366 20.2549 31.1366 20.8018C31.1366 21.9346 30.9803 23.043 30.6678 24.127C30.3651 25.2012 29.9354 26.2266 29.3788 27.2031C28.8319 28.1797 28.1727 29.0879 27.4012 29.9277C26.6395 30.7578 25.7997 31.4951 24.8817 32.1396C25.4481 32.1885 26.0243 32.2715 26.6102 32.3887C27.1962 32.4961 27.7723 32.6377 28.3387 32.8135C28.9052 32.9795 29.4471 33.1797 29.9647 33.4141C30.4921 33.6484 30.9803 33.9121 31.4296 34.2051L31.3124 34.4541Z" fill="white"/>
</svg>
